<svg width="149" height="26" viewBox="0 0 149 26" fill="none" xmlns="http://www.w3.org/2000/svg">
<g clip-path="url(#clip0_1_110)">
<path d="M17.9071 0.374225C18.0553 0.523915 18.1551 0.831931 18.1779 1.04495C18.309 2.20505 18.2862 4.87356 18.1807 6.05957C18.118 6.76196 17.8615 7.02392 17.1631 7.08725C14.5948 7.31466 11.6986 6.90589 9.09608 7.08725C8.42621 7.19376 7.93021 8.71656 7.92736 9.32108L10.5641 15.8671C10.6639 16.5148 10.2876 16.8833 9.66334 16.9409C7.75063 17.1222 5.56713 16.7998 3.62592 16.9409C3.03301 16.8689 2.95319 16.5033 2.7337 16.0341C1.69611 13.7916 0.920764 11.3822 -0.00280762 9.09655C0.801042 7.02104 1.62769 4.95128 2.48855 2.8988C2.69379 2.40943 3.32376 0.667848 3.58316 0.388619C3.79695 0.158326 4.14471 0.120904 4.43832 0.100753C8.54023 -0.207263 13.0184 0.339682 17.1602 0.100753C17.394 0.100753 17.7389 0.210142 17.9042 0.377104L17.9071 0.374225Z" fill="#42C583"/>
<path d="M20.8403 25.6143C20.6094 25.8071 20.3101 25.8676 20.0165 25.8906C15.9801 26.236 11.4649 25.6229 7.37721 25.8906C6.66458 25.8302 6.34532 25.5999 6.2769 24.8629C6.16858 23.7086 6.14293 20.8904 6.2769 19.7648C6.34247 19.2208 6.69308 18.9502 7.21188 18.9012C9.7574 18.6537 12.6991 19.0941 15.2874 18.907C16.0571 18.8149 16.4219 17.3928 16.5474 16.7365L13.8622 9.83924C13.9049 9.49668 14.1216 9.2376 14.4237 9.08503H21.0312C21.513 9.21457 21.6926 9.93423 21.8835 10.366C22.81 12.4761 23.5768 14.684 24.449 16.8171L20.8403 25.6114V25.6143Z" fill="#42C583"/>
<path d="M110.199 18.1269C110.153 18.3572 109.862 18.6422 109.631 18.7026C109.349 18.7775 108.101 18.789 107.813 18.7256C107.308 18.6105 107.211 18.0722 107.18 17.6375C106.955 14.4883 107.311 11.0051 107.24 7.83282C107.377 7.40677 107.605 7.28011 108.035 7.23981C109.737 7.08437 112.493 7.15345 114.238 7.23981C116.589 7.35784 118.953 7.98538 119.004 10.818C119.041 12.7438 118.026 14.0737 116.148 14.4307L118.611 17.6145C118.787 18.0146 118.645 18.5011 118.231 18.6652C117.872 18.8062 116.242 18.8034 115.908 18.6105L112.966 14.7992H110.196V18.1269H110.199ZM110.199 12.6661H114.232C114.375 12.6661 115.03 12.4732 115.193 12.4012C116.284 11.9032 116.239 10.0926 115.087 9.6694C114.953 9.62046 114.335 9.46213 114.235 9.46213H110.201V12.6661H110.199Z" fill="#42C583"/>
<path d="M75.4791 15.4584V18.1269C75.4791 18.4781 74.9375 18.717 74.6268 18.7458C74.0624 18.8005 72.7169 18.8926 72.5602 18.1902L72.5374 7.85585C72.5887 7.46435 72.9507 7.27436 73.3127 7.23982C75.0544 7.07861 77.8906 7.15058 79.6779 7.23982C82.7422 7.39526 84.6863 8.35673 84.4469 11.8054C84.1305 16.368 78.6175 15.3375 75.4762 15.4555L75.4791 15.4584ZM75.4791 13.3224C76.5167 13.2764 77.5856 13.3829 78.6204 13.3253C79.5753 13.2735 81.2115 13.1324 81.4082 11.9464C81.5393 11.1605 81.4595 10.2423 80.7241 9.80182C80.553 9.69819 79.7691 9.46214 79.5953 9.46214H75.4791V13.3224Z" fill="#42C583"/>
<path d="M144.909 16.2097L138.618 16.1924C138.496 16.2212 137.706 18.1672 137.492 18.4435C137.187 18.8379 135.748 18.8178 135.28 18.7228C134.97 18.6594 134.682 18.3572 134.65 18.0348C134.619 17.7124 135.614 15.8873 135.831 15.4555C137.116 12.8791 138.524 10.3603 139.77 7.76085C139.912 7.53056 140.123 7.29163 140.403 7.24845C140.907 7.16785 142.643 7.17936 143.171 7.24269C143.698 7.30602 143.838 7.74646 144.066 8.14659C145.425 10.5301 146.737 13.308 147.977 15.7837C148.162 16.1521 148.969 17.6202 148.994 17.888C149.034 18.3054 148.698 18.6767 148.296 18.7372C147.922 18.7947 146.509 18.7947 146.226 18.6163C145.719 18.2967 145.246 16.7624 144.907 16.2097H144.909ZM139.622 14.0622H143.86L141.782 9.7903L141.563 9.98029L139.622 14.0622Z" fill="#42C583"/>
<path d="M100.418 9.54562H93.7339V11.7622H99.9281V13.9787H93.7339V16.4429H100.743V17.9628C100.743 18.3082 100.265 18.8062 99.8911 18.7458C97.2572 18.5184 94.153 19.0365 91.5732 18.7429C91.254 18.7055 91.0145 18.6047 90.8606 18.3111L90.835 7.73207L91.2283 7.30603L99.7258 7.2427C99.9424 7.18512 100.416 7.62556 100.416 7.77813V9.54274L100.418 9.54562Z" fill="#42C583"/>
<path d="M55.916 7.24557V13.6103C55.916 13.9154 56.0385 14.638 56.1383 14.946C56.4747 15.9909 57.441 16.5091 58.4843 16.607C60.4027 16.7854 62.7629 16.4832 62.7629 14.0219V7.24557H65.0861C65.1859 7.24557 65.679 7.67162 65.6192 7.85585C65.0947 12.0241 67.5148 17.7843 61.7852 18.7861C59.0458 19.264 53.9206 19.2668 53.168 15.8038C52.8231 14.2177 52.8146 9.78743 52.9771 8.10341C53.0084 7.77813 53.2193 7.24557 53.5928 7.24557H55.916Z" fill="#42C583"/>
<path d="M41.0647 7.02391C42.0025 6.96346 42.8149 7.04119 43.7271 7.08437C44.3371 7.11315 45.8935 6.93468 46.207 7.54207C46.3353 7.79251 46.3439 8.62732 46.2811 8.90943C46.1329 9.5744 45.3946 9.48228 44.8673 9.46501C44.2544 9.44198 43.5304 9.31244 42.9175 9.29517C42.2676 9.27502 40.1411 9.25487 39.6879 9.66076C39.2118 10.0897 39.4228 10.9015 40.0214 11.1433C42.5042 12.1393 47.2161 11.1231 47.0308 15.4209C46.8456 19.7188 41.3982 19.0797 38.5078 18.9128C38.1856 18.8955 37.4417 18.8523 37.1794 18.7717C36.7832 18.6508 36.7091 18.3399 36.6749 17.9657C36.5466 16.6041 36.8345 16.3968 38.103 16.4429C39.4912 16.4918 40.8594 16.6991 42.259 16.607C43.2966 16.5379 44.3798 16.4774 44.0777 15.1072C43.9836 14.6783 43.4876 14.5919 43.1313 14.4998C41.0704 13.9557 36.9628 14.1313 36.6777 11.2296C36.3727 8.13219 38.3738 7.19951 41.0618 7.02391H41.0647Z" fill="#42C583"/>
<path d="M128.513 7.43556C128.693 7.60252 128.764 8.02569 128.787 8.27037C129.046 11.3505 128.605 14.8222 128.761 17.9426C128.744 18.242 128.508 18.6191 128.217 18.7084C127.966 18.7861 126.755 18.7832 126.467 18.74C126.062 18.6767 125.808 18.3716 125.765 17.9657L125.774 7.94796C125.845 7.57662 126.087 7.3089 126.467 7.24845C126.846 7.188 128.245 7.18224 128.513 7.43268V7.43556Z" fill="#42C583"/>
</g>
<defs>
<clipPath id="clip0_1_110">
<rect width="149" height="26" fill="white"/>
</clipPath>
</defs>
</svg>
